<svg width="16" height="16" viewBox="0 0 16 16" fill="none" xmlns="http://www.w3.org/2000/svg">
<path d="M16 9.80959V16H12.5707V10.2242C12.5707 8.77325 12.0747 7.78305 10.8334 7.78305C9.88579 7.78305 9.32189 8.45037 9.07381 9.0959C8.98334 9.32667 8.96006 9.64788 8.96006 9.97091V16H5.52958C5.52958 16 5.57579 6.21766 5.52958 5.20414H8.95972V6.73441C8.95276 6.74586 8.94372 6.7582 8.93718 6.76929H8.95972V6.73441C9.41545 5.99985 10.2293 4.95052 12.051 4.95052C14.308 4.95048 16 6.49352 16 9.80959ZM1.94116 0C0.767605 0 0 0.805563 0 1.86491C0 2.90116 0.745397 3.73117 1.89563 3.73117H1.91855C3.11484 3.73117 3.85882 2.90132 3.85882 1.86491C3.83628 0.805563 3.11484 0 1.94116 0ZM0.20374 16H3.63291V5.20414H0.20374V16Z" fill="#F8D090"/>
</svg>
