<svg width="16" height="16" viewBox="0 0 16 16" fill="none" xmlns="http://www.w3.org/2000/svg">
<path d="M4.96429 16C10.9212 16 14.1794 10.9981 14.1794 6.66044C14.1794 6.51837 14.1794 6.37694 14.1699 6.23615C14.8037 5.77148 15.3509 5.19613 15.7857 4.53705C15.1946 4.80251 14.5676 4.9766 13.9255 5.0535C14.6016 4.64328 15.1076 3.99806 15.3494 3.23794C14.7136 3.62028 14.0181 3.88974 13.2928 4.03469C12.8045 3.50844 12.1587 3.15997 11.4553 3.04321C10.7519 2.92644 10.0301 3.04789 9.40169 3.38876C8.77325 3.72963 8.27318 4.27092 7.97885 4.92886C7.68453 5.5868 7.61236 6.32472 7.77352 7.02841C6.48588 6.96299 5.22621 6.62385 4.07628 6.03302C2.92635 5.44218 1.91186 4.61285 1.09869 3.59887C0.684527 4.32149 0.557678 5.17692 0.743967 5.991C0.930257 6.80508 1.41568 7.51659 2.10139 7.98067C1.58599 7.96519 1.08181 7.82428 0.631429 7.56982C0.631429 7.58326 0.631429 7.59734 0.631429 7.61142C0.631633 8.36927 0.890479 9.10372 1.36406 9.69019C1.83765 10.2767 2.49681 10.6791 3.22976 10.8291C2.75295 10.9609 2.25267 10.9802 1.76737 10.8854C1.97433 11.5377 2.37724 12.108 2.91977 12.5168C3.4623 12.9255 4.1173 13.1521 4.79317 13.165C3.64633 14.0785 2.22961 14.5744 0.770974 14.5729C0.513291 14.5724 0.255857 14.5566 0 14.5255C1.4811 15.4888 3.20445 15.9998 4.96429 15.9974" fill="#F8D090"/>
</svg>
